<svg width="132" height="132" viewBox="0 0 132 132" fill="none" xmlns="http://www.w3.org/2000/svg">
<rect width="132" height="132" fill="#212121"/>
<path d="M12.8984 65.3359C12.8984 62.5833 13.2995 60.013 14.1016 57.625C14.9219 55.237 16.0612 53.1771 17.5195 51.4453C20.6367 47.7812 24.5833 45.9492 29.3594 45.9492C33.9349 45.9492 37.599 47.6719 40.3516 51.1172C43.0312 54.4714 44.3711 58.9102 44.3711 64.4336C44.3711 70.668 42.7487 75.526 39.5039 79.0078C36.6055 82.125 32.8867 83.6836 28.3477 83.6836C23.9544 83.6836 20.2904 81.9883 17.3555 78.5977C14.3841 75.1523 12.8984 70.7318 12.8984 65.3359ZM22.4688 73.9766C23.2708 75.0156 24.2279 75.8268 25.3398 76.4102C26.4518 76.9753 27.582 77.2578 28.7305 77.2578C29.8971 77.2578 30.9818 77.0026 31.9844 76.4922C32.987 75.9818 33.8893 75.2161 34.6914 74.1953C36.4961 71.862 37.3984 68.8086 37.3984 65.0352C37.3984 61.1706 36.6328 58.0807 35.1016 55.7656C33.5521 53.487 31.4557 52.3477 28.8125 52.3477C26.151 52.3477 24 53.5326 22.3594 55.9023C20.7005 58.2904 19.8711 61.3802 19.8711 65.1719C19.8711 68.7995 20.737 71.7344 22.4688 73.9766ZM52.9805 46.6328H59.9531V83H52.9805V46.6328ZM71.5977 46.6328H78.5703V83H71.5977V46.6328ZM87.1797 65.3359C87.1797 62.5833 87.5807 60.013 88.3828 57.625C89.2031 55.237 90.3424 53.1771 91.8008 51.4453C94.918 47.7812 98.8646 45.9492 103.641 45.9492C108.216 45.9492 111.88 47.6719 114.633 51.1172C117.312 54.4714 118.652 58.9102 118.652 64.4336C118.652 70.668 117.03 75.526 113.785 79.0078C110.887 82.125 107.168 83.6836 102.629 83.6836C98.2357 83.6836 94.5716 81.9883 91.6367 78.5977C88.6654 75.1523 87.1797 70.7318 87.1797 65.3359ZM96.75 73.9766C97.5521 75.0156 98.5091 75.8268 99.6211 76.4102C100.733 76.9753 101.863 77.2578 103.012 77.2578C104.178 77.2578 105.263 77.0026 106.266 76.4922C107.268 75.9818 108.171 75.2161 108.973 74.1953C110.777 71.862 111.68 68.8086 111.68 65.0352C111.68 61.1706 110.914 58.0807 109.383 55.7656C107.833 53.487 105.737 52.3477 103.094 52.3477C100.432 52.3477 98.2812 53.5326 96.6406 55.9023C94.9818 58.2904 94.1523 61.3802 94.1523 65.1719C94.1523 68.7995 95.0182 71.7344 96.75 73.9766Z" fill="white"/>
</svg>
