<svg width="106" height="38" viewBox="0 0 106 38" fill="none" xmlns="http://www.w3.org/2000/svg">
<path d="M0 19.3867C0 16.6341 0.401042 14.0638 1.20312 11.6758C2.02344 9.28776 3.16276 7.22786 4.62109 5.49609C7.73828 1.83203 11.6849 0 16.4609 0C21.0365 0 24.7005 1.72266 27.4531 5.16797C30.1328 8.52214 31.4727 12.9609 31.4727 18.4844C31.4727 24.7188 29.8503 29.5768 26.6055 33.0586C23.707 36.1758 19.9883 37.7344 15.4492 37.7344C11.056 37.7344 7.39193 36.0391 4.45703 32.6484C1.48568 29.2031 0 24.7826 0 19.3867ZM9.57031 28.0273C10.3724 29.0664 11.3294 29.8776 12.4414 30.4609C13.5534 31.026 14.6836 31.3086 15.832 31.3086C16.9987 31.3086 18.0833 31.0534 19.0859 30.543C20.0885 30.0326 20.9909 29.2669 21.793 28.2461C23.5977 25.9128 24.5 22.8594 24.5 19.0859C24.5 15.2214 23.7344 12.1315 22.2031 9.81641C20.6536 7.53776 18.5573 6.39844 15.9141 6.39844C13.2526 6.39844 11.1016 7.58333 9.46094 9.95312C7.80208 12.3411 6.97266 15.431 6.97266 19.2227C6.97266 22.8503 7.83854 25.7852 9.57031 28.0273ZM40.082 0.683594H47.0547V37.0508H40.082V0.683594ZM58.6992 0.683594H65.6719V37.0508H58.6992V0.683594ZM74.2812 19.3867C74.2812 16.6341 74.6823 14.0638 75.4844 11.6758C76.3047 9.28776 77.444 7.22786 78.9023 5.49609C82.0195 1.83203 85.9661 0 90.7422 0C95.3177 0 98.9818 1.72266 101.734 5.16797C104.414 8.52214 105.754 12.9609 105.754 18.4844C105.754 24.7188 104.132 29.5768 100.887 33.0586C97.9883 36.1758 94.2695 37.7344 89.7305 37.7344C85.3372 37.7344 81.6732 36.0391 78.7383 32.6484C75.7669 29.2031 74.2812 24.7826 74.2812 19.3867ZM83.8516 28.0273C84.6536 29.0664 85.6107 29.8776 86.7227 30.4609C87.8346 31.026 88.9648 31.3086 90.1133 31.3086C91.2799 31.3086 92.3646 31.0534 93.3672 30.543C94.3698 30.0326 95.2721 29.2669 96.0742 28.2461C97.8789 25.9128 98.7812 22.8594 98.7812 19.0859C98.7812 15.2214 98.0156 12.1315 96.4844 9.81641C94.9349 7.53776 92.8385 6.39844 90.1953 6.39844C87.5339 6.39844 85.3828 7.58333 83.7422 9.95312C82.0833 12.3411 81.2539 15.431 81.2539 19.2227C81.2539 22.8503 82.1198 25.7852 83.8516 28.0273Z" fill="#FAFAFA"/>
</svg>
